Coordinates
version=1
nRows=7
nColumns=40
inDegrees=yes

Units are S.I. units (second, meters, Newtons, ...)
If the header above contains a line with 'inDegrees', this indicates whether rotational values are in degrees (yes) or radians (no).

endheader
time	pelvis_tilt	pelvis_list	pelvis_rotation	pelvis_tx	pelvis_ty	pelvis_tz	hip_flexion_r	hip_adduction_r	hip_rotation_r	knee_angle_r	knee_angle_r_beta	ankle_angle_r	subtalar_angle_r	mtp_angle_r	hip_flexion_l	hip_adduction_l	hip_rotation_l	knee_angle_l	knee_angle_l_beta	ankle_angle_l	subtalar_angle_l	mtp_angle_l	lumbar_extension	lumbar_bending	lumbar_rotation	arm_flex_r	arm_add_r	arm_rot_r	elbow_flex_r	pro_sup_r	wrist_flex_r	wrist_dev_r	arm_flex_l	arm_add_l	arm_rot_l	elbow_flex_l	pro_sup_l	wrist_flex_l	wrist_dev_l
      0.00833300	      6.69198255	     -4.02139902	     -1.82453700	      0.86372810	      1.08199999	     -0.45719680	    -12.83409255	      6.06668104	      4.83085065	      4.10109180	      0.07157755	      5.41984748	      0.00000000	      0.00000000	     23.18956354	     -9.85760154	     -8.50295005	     36.19724352	      0.63176108	     -0.93346338	      0.00000000	      0.00000000	    -19.81107632	      2.52728862	      5.65275468	     -3.96277859	    -12.93215556	    -15.58963879	     67.10661748	     78.54452285	      0.00000000	      0.00000000	     -7.96335146	     -2.95498554	    -14.28309557	     41.85669314	     81.50050441	      0.00000000	      0.00000000
      0.01666700	      6.60939110	     -4.01888579	     -1.93072622	      0.86272787	      1.08084839	     -0.45752638	    -13.57653397	      5.97329553	      4.95409274	      3.66898559	      0.06403588	      5.65754307	      0.00000000	      0.00000000	     22.93483621	     -9.58054783	     -8.61786701	     32.82554718	      0.57291388	     -1.22843449	      0.00000000	      0.00000000	    -19.79594396	      2.49434998	      5.76970930	     -3.59949400	    -13.10113604	    -15.07953898	     67.66388762	     78.51130615	      0.00000000	      0.00000000	     -8.11031157	     -2.91131228	    -14.50984617	     41.31067666	     81.39885102	      0.00000000	      0.00000000
      0.02500000	      6.31056601	     -4.23748036	     -2.01791229	      0.86158563	      1.07916675	     -0.45788904	    -14.01236312	      6.12839575	      5.24985668	      3.38537181	      0.05908588	      5.90809570	      0.00000000	      0.00000000	     22.98359381	     -9.48975090	     -8.34801811	     29.57999934	      0.51626838	     -1.38850345	      0.00000000	      0.00000000	    -19.57498096	      2.70955469	      5.97911186	     -3.31721546	    -13.33901757	    -14.64943119	     68.24803261	     78.45049180	      0.00000000	      0.00000000	     -8.31625761	     -2.82537391	    -14.68498176	     41.04224727	     81.27634959	      0.00000000	      0.00000000
      0.03333300	      6.52142817	     -4.06104082	     -2.12607248	      0.86078995	      1.07827958	     -0.45828761	    -15.17064084	      5.81600621	      5.33193569	      2.76364028	      0.04823462	      6.05071853	      0.00000000	      0.00000000	     22.14886560	     -8.97146581	     -8.54188921	     25.87988467	      0.45168920	     -1.94625606	      0.00000000	      0.00000000	    -19.88817416	      2.47378366	      5.93487620	     -2.80101470	    -13.41712117	    -14.09744459	     68.67334545	     78.40986639	      0.00000000	      0.00000000	     -8.47393613	     -2.80859601	    -15.01099221	     40.55442635	     81.27627246	      0.00000000	      0.00000000
      0.04166700	      6.41458317	     -4.10723121	     -2.20207544	      0.85989589	      1.07666958	     -0.45872334	    -15.86351863	      5.76931894	      5.50307970	      2.39865432	      0.04186442	      6.28039659	      0.00000000	      0.00000000	     21.80070500	     -8.65237766	     -8.21344956	     22.51409354	      0.39294506	     -2.20757408	      0.00000000	      0.00000000	    -19.86472467	      2.48955352	      5.94685252	     -2.41106219	    -13.52012881	    -13.59724328	     69.13703571	     78.38364564	      0.00000000	      0.00000000	     -8.69867128	     -2.76104796	    -15.28877022	     40.25196261	     81.30773299	      0.00000000	      0.00000000
      0.05000000	      6.26864685	     -4.12612550	     -2.24189604	      0.85902733	      1.07488694	     -0.45930747	    -16.47570499	      5.70072257	      5.62713126	      2.10669747	      0.03676881	      6.58231282	      0.00000000	      0.00000000	     21.45494746	     -8.26883899	     -7.62872612	     19.18166477	      0.33478321	     -2.50921128	      0.00000000	      0.00000000	    -19.79879743	      2.49871558	      5.92247820	     -2.04973275	    -13.62601651	    -13.11863857	     69.57087547	     78.36509736	      0.00000000	      0.00000000	     -8.87919867	     -2.71939727	    -15.54346621	     39.89236672	     81.32296120	      0.00000000	      0.00000000
      0.05833300	      6.05794382	     -4.17099071	     -2.26713549	      0.85818690	      1.07285864	     -0.45996281	    -16.99464502	      5.66522923	      5.81415510	      1.86827649	      0.03260758	      6.92762143	      0.00000000	      0.00000000	     21.17852315	     -7.91694703	     -6.74430184	     16.00411514	      0.27932450	     -2.75879918	      0.00000000	      0.00000000	    -19.65776928	      2.54976450	      5.88030870	     -1.71968030	    -13.72709545	    -12.67281571	     70.01999926	     78.34590761	      0.00000000	      0.00000000	     -9.06414109	     -2.68032382	    -15.76524296	     39.55177752	     81.31277248	      0.00000000	      0.00000000
